<?xml version="1.0" encoding="UTF-8"?>
<svg version="1.1" viewBox="0 0 2048 2048" width="1280" height="1280" xmlns="http://www.w3.org/2000/svg">
<path transform="translate(1383,586)" d="m0 0 2 1v400l-1 32-4 5-25 14-20 12-16 10-15 9-17 11-23 14-15 10-15 9-21 13-60 38-20 12-18 12-20 12-28 17-21 13-12 8-47 30-28 17-13 8-23 14-22 14-24 15-23 15-22 13-19 12-20 12-20 13-26 16-26 17-21 13-18 10-4 1v-363l1-67 5-6 15-9 24-14 22-13 16-10 44-28 17-10 34-22 18-11 32-20 26-16 24-14 22-14 13-9 57-36 24-16 18-11 35-21 42-26 22-14 15-10 56-34 19-12 24-15 15-10 26-17 24-15z" fill="#FE7900"/>
<path transform="translate(1403,579)" d="m0 0h423l11 1 1 1v429l-4 4h-427l-2-2-1-73-1-328-1-31z" fill="#FE7900"/>
<path transform="translate(229,1031)" d="m0 0 8 1 22 1 397 1 2 2 1 428-1 2-4 1-274 1h-152l-2-1-1-3-1-14v-377l1-38z" fill="#FE7900"/>
<path transform="translate(1810,1030)" d="m0 0 4 1-12 10-17 11-20 12-22 14-18 12-21 13-24 15-23 14-20 13-24 15-20 13-56 34-21 13-11 7-15 8-11 4-8 1-43 1h-360l-2-2 9-8 35-21 16-10 23-14 16-10 22-14 21-13 19-12 18-11 21-13 16-10 22-14 46-28 16-10 21-13 10-5 7-1h360l32-1z" fill="#FE7900"/>
<path transform="translate(985,804)" d="m0 0h11l5 1-3 3-11 7-16 10-22 13-15 10-16 10-21 13-17 11-23 14-23 15-16 9-15 10-15 9-21 13-44 28-19 12-21 12-15 8-12 2h-336l-51 1-19 1 5-5 11-9 19-12 21-13 16-10 41-26 64-40 21-13 14-9 16-10 23-15 24-15 23-14 25-15 8-4 5-1h387z" fill="#FE7900"/>
</svg>
